<svg width="900" height="180" viewBox="0 0 900 180" fill="none" xmlns="http://www.w3.org/2000/svg">
<rect width="900" height="180" fill="#F6F6F6"/>
<path d="M211.13 63.24H249.014V72.506H221.626V86.528H245.734V95.712H221.626V119H211.13V63.24ZM272.598 59.304H285.144V70.866H272.598V59.304ZM260.708 110.554H274.976V84.642H261.528V76.196H284.816V110.554H298.51V119H260.708V110.554ZM308.072 76.196H318.076V82.1H318.732C320.263 79.4213 321.848 77.59 323.488 76.606C325.128 75.622 327.451 75.13 330.458 75.13C334.613 75.13 337.811 75.6493 340.052 76.688C342.293 77.672 343.879 79.3667 344.808 81.772C345.792 84.1227 346.284 87.512 346.284 91.94V119H336.28V91.776C336.28 89.7533 336.034 88.1953 335.542 87.102C335.105 85.954 334.312 85.1613 333.164 84.724C332.016 84.232 330.403 83.986 328.326 83.986C325.647 83.986 323.57 84.3687 322.094 85.134C320.673 85.8993 319.634 87.2113 318.978 89.07C318.377 90.874 318.076 93.4433 318.076 96.778V119H308.072V76.196ZM372.246 119.738C368.255 119.738 365.167 119.355 362.98 118.59C360.848 117.77 359.317 116.431 358.388 114.572C357.513 112.659 357.076 109.98 357.076 106.536C357.076 102.491 357.705 99.3747 358.962 97.188C360.219 94.9467 362.351 93.3613 365.358 92.432C368.365 91.5027 372.629 91.038 378.15 91.038H384.628V90.546C384.628 88.6873 384.355 87.266 383.808 86.282C383.316 85.298 382.441 84.5873 381.184 84.15C379.981 83.7127 378.259 83.494 376.018 83.494C373.011 83.494 370.961 83.904 369.868 84.724C368.829 85.4893 368.365 86.9927 368.474 89.234H358.47C358.306 85.5167 358.716 82.674 359.7 80.706C360.739 78.6833 362.515 77.262 365.03 76.442C367.599 75.5673 371.262 75.13 376.018 75.13C380.774 75.13 384.437 75.5947 387.006 76.524C389.63 77.4533 391.489 79.0113 392.582 81.198C393.675 83.3847 394.222 86.5007 394.222 90.546V119H384.874V113.916H384.218C382.687 116.157 381.075 117.688 379.38 118.508C377.685 119.328 375.307 119.738 372.246 119.738ZM373.968 111.21C376.701 111.21 378.806 110.855 380.282 110.144C381.758 109.433 382.797 108.231 383.398 106.536C384.054 104.841 384.437 102.409 384.546 99.238L376.428 99.32C373.968 99.3747 372.055 99.5933 370.688 99.976C369.376 100.359 368.447 101.015 367.9 101.944C367.353 102.819 367.08 104.103 367.08 105.798C367.08 107.875 367.545 109.297 368.474 110.062C369.458 110.827 371.289 111.21 373.968 111.21ZM406.408 76.196H416.412V82.1H417.068C418.599 79.4213 420.184 77.59 421.824 76.606C423.464 75.622 425.787 75.13 428.794 75.13C432.949 75.13 436.147 75.6493 438.388 76.688C440.629 77.672 442.215 79.3667 443.144 81.772C444.128 84.1227 444.62 87.512 444.62 91.94V119H434.616V91.776C434.616 89.7533 434.37 88.1953 433.878 87.102C433.441 85.954 432.648 85.1613 431.5 84.724C430.352 84.232 428.739 83.986 426.662 83.986C423.983 83.986 421.906 84.3687 420.43 85.134C419.009 85.8993 417.97 87.2113 417.314 89.07C416.713 90.874 416.412 93.4433 416.412 96.778V119H406.408V76.196ZM476.076 119.738C470.664 119.738 466.482 119.082 463.53 117.77C460.578 116.458 458.473 114.244 457.216 111.128C456.013 107.957 455.412 103.475 455.412 97.68C455.412 91.776 456.013 87.2113 457.216 83.986C458.473 80.7607 460.551 78.492 463.448 77.18C466.4 75.8133 470.555 75.13 475.912 75.13C480.613 75.13 484.249 75.5947 486.818 76.524C489.387 77.4533 491.219 79.0387 492.312 81.28C493.46 83.4667 494.089 86.5827 494.198 90.628H484.276C483.893 87.9493 483.128 86.1453 481.98 85.216C480.887 84.232 479.028 83.74 476.404 83.74C473.507 83.74 471.265 84.1773 469.68 85.052C468.149 85.872 467.056 87.2933 466.4 89.316C465.744 91.284 465.416 94.0993 465.416 97.762C465.416 101.261 465.744 103.967 466.4 105.88C467.056 107.793 468.177 109.16 469.762 109.98C471.347 110.745 473.589 111.128 476.486 111.128C479.001 111.128 480.805 110.718 481.898 109.898C483.046 109.023 483.866 107.438 484.358 105.142H494.198C494.089 108.969 493.46 111.921 492.312 113.998C491.219 116.075 489.387 117.551 486.818 118.426C484.303 119.301 480.723 119.738 476.076 119.738ZM524.506 119.738C519.149 119.738 515.021 119.082 512.124 117.77C509.227 116.403 507.149 114.107 505.892 110.882C504.689 107.657 504.088 103.092 504.088 97.188C504.088 91.3933 504.662 86.938 505.81 83.822C507.013 80.6513 509.008 78.41 511.796 77.098C514.639 75.786 518.657 75.13 523.85 75.13C529.153 75.13 533.198 75.8953 535.986 77.426C538.829 78.9567 540.797 81.5533 541.89 85.216C543.038 88.8787 543.503 94.0993 543.284 100.878H514.174C514.393 103.611 514.83 105.716 515.486 107.192C516.142 108.668 517.153 109.734 518.52 110.39C519.941 110.991 521.909 111.292 524.424 111.292C526.884 111.292 528.661 110.909 529.754 110.144C530.902 109.379 531.804 107.957 532.46 105.88H542.628C542.081 109.488 541.179 112.276 539.922 114.244C538.665 116.212 536.833 117.633 534.428 118.508C532.023 119.328 528.715 119.738 524.506 119.738ZM533.526 92.514C533.362 90.1633 532.952 88.3593 532.296 87.102C531.695 85.79 530.738 84.888 529.426 84.396C528.114 83.8493 526.255 83.576 523.85 83.576C521.554 83.576 519.777 83.8493 518.52 84.396C517.263 84.888 516.306 85.79 515.65 87.102C514.994 88.3593 514.529 90.1633 514.256 92.514H533.526ZM552.846 63.24H563.26V88.824L581.546 63.24H593.6L573.592 90.464V90.71L596.716 119H583.678L563.26 92.432V119H552.846V63.24ZM616.774 59.304H629.32V70.866H616.774V59.304ZM604.884 110.554H619.152V84.642H605.704V76.196H628.992V110.554H642.686V119H604.884V110.554ZM676.602 119.902C672.666 119.902 669.687 119.383 667.664 118.344C665.641 117.305 664.275 115.775 663.564 113.752C662.853 111.675 662.498 108.859 662.498 105.306V84.642H651.92L653.888 76.196H662.826V67.504L672.338 63.486V76.196H688.328V84.642H672.338V104.978C672.338 106.727 672.475 108.012 672.748 108.832C673.076 109.652 673.732 110.253 674.716 110.636C675.755 111.019 677.313 111.21 679.39 111.21C681.741 111.21 685.157 110.882 689.64 110.226V118.836C683.955 119.547 679.609 119.902 676.602 119.902Z" fill="#1A1A1A"/>
</svg>
